# xmcd CD database file
#
# Track frame offsets:
#	150
#	16295
#	32500
#	47248
#	63715
#	81538
#	96293
#	111835
#	127748
#	144083
#	161683
#	178025
#	193458
#	206758
#	222222
#	239948
#	254723
#	270965
#	288915
#	302988
#	316498
#
# Disc length: 4456 seconds
#
# Revision: 0
# Processed by: cddbd v1.5.2PL0 Copyright (c) Steve Scherf et al.
# Submitted via: CDex 1.70beta2
#
DISCID=45116615
DTITLE=ChartBreakers - ChartBreakers CGC-506
DYEAR=0000
DGENRE=Country
TTITLE0=Alabama/Feels So Right
TTITLE1=Baillie and The Boys/Treat Me Like A Stranger
TTITLE2=Lionel Cartwright/My Heart Is Set On You
TTITLE3=Billy Dean/Tryin' To Hide A Fire In The Dark
TTITLE4=David Frizzell/I'm Gonna Hire A Wino To Decorate Our Home
TTITLE5=Collin Raye/That Was A River
TTITLE6=Sawyer Brown/The Boys And Me
TTITLE7=Billy Ray Cyrus/She's Not Cryin' Anymore
TTITLE8=Alan Jackson/Tonight I Climbed The Wall
TTITLE9=Hal Ketchum/Mama Knows The Highway
TTITLE10=Patty Loveless/Blame It On Your Heart
TTITLE11=Reba McEntire and Vince Gill/Heart Won'tLie
TTITLE12=Kentucky Headhunters/Dumas Walker
TTITLE13=McBride and The Ride/Can I Count On You
TTITLE14=Collin Raye/Love, Me
TTITLE15=Sawyer Brown/Some Girls Do
TTITLE16=Pam Tillis/Let That Pony run
TTITLE17=Steve Wariner/Leave Him Out Of This
TTITLE18=Dwight Yoakam/Guitars, Cadillacs
TTITLE19=Alabama/Here We Are
TTITLE20=Suzy Bogguss/Someday Soon
EXTD=YEAR: 0000
EXTT0=
EXTT1=
EXTT2=
EXTT3=
EXTT4=
EXTT5=
EXTT6=
EXTT7=
EXTT8=
EXTT9=
EXTT10=
EXTT11=
EXTT12=
EXTT13=
EXTT14=
EXTT15=
EXTT16=
EXTT17=
EXTT18=
EXTT19=
EXTT20=
PLAYORDER=
